<svg id="assets" xmlns="http://www.w3.org/2000/svg" viewBox="0 0 272 216"><defs><style>.cls-1{fill:#edece6;}.cls-2{fill:none;}.cls-3{fill:#430e32;}.cls-4{fill:#6ac1d0;}</style></defs><title>gr_em_noresults</title><path class="cls-1" d="M263.78,31.75287c-4.619-1.16986-8.588-1.00342-12.19409-4.624-5.36524-5.38685-10.97516-11.454-19.5268-8.73407-5.37005,1.71026-6.47509,7.57269-10.23828,10.944-4.39117,3.93389-9.86621-.51453-14.94348.15081-3.76166.493-8.251,2.46033-9.54016,6.34272-1.597,4.80987,5.44464,4.63342,8.6662,4.63342,6.11017,0,61.03894-.845,62.45221-1.96753C270.92108,36.53986,266.8335,32.52655,263.78,31.75287Z"/><path class="cls-1" d="M68.754,74.89661c-6.43335,1.38116-7.81134-1.86457-10.90662-6.86487a13.03871,13.03871,0,0,0-5.74524-5.23932,8.49983,8.49983,0,0,0-7.60132.29022c-3.86657,2.31275-5.08294,7.9422-9.27642,9.59039-3.22925,1.26917-7.33722-.25982-10.38984,1.31635C22.437,75.22723,19.601,79.20117,21.16364,81.5918c2.21936,3.39526,6.07611,3.24676,9.83276,3.30011,4.25384.06048,8.49908-.31659,12.75171-.35016,8.12005-.06409,16.23547-.4646,24.334-1.04639,8.18769-.58819,9.28278-3.13714,8.52759-5.79614C75.39008,73.405,72.30444,74.13434,68.754,74.89661Z"/><path class="cls-2" d="M217.15588,85.29846l-.0188.09033a3.52537,3.52537,0,0,1,.82953.01795c-.27075-.08234-.54333-.16168-.81823-.23132C217.15057,85.21564,217.15393,85.25879,217.15588,85.29846Z"/><path class="cls-2" d="M197.92645,114.251a24.56548,24.56548,0,0,0-.71118,5.83258c.0578.70221-.637.20184.37457.58026a10.95939,10.95939,0,0,0,1.47437.41327c.15863-2.07178.397-4.13758.75024-6.18512C199.81445,114.892,199.00568,114.60986,197.92645,114.251Z"/><path class="cls-2" d="M191.38068,104.02661q-.14035,2.32324-.29291,4.64575c-.04736.71991-.03723,1.46778-.14453,2.18061a1.94836,1.94836,0,0,0-.01526.58667,9.684,9.684,0,0,0,1.838.526c.1156-1.72882.391-5.88227.50812-7.94037C193.27411,104.02527,192.44012,104.01691,191.38068,104.02661Z"/><path class="cls-2" d="M111.285,46.41364l.14832-.06727c.087-.19726.17749-.39306.26831-.58862C111.56317,45.97638,111.42548,46.195,111.285,46.41364Z"/><path class="cls-2" d="M133.36115,177.4259a.50093.50093,0,0,0,.4414.55274.5511.5511,0,0,0,.05664.00293.49953.49953,0,0,0,.4961-.44434l4.76294-42.56225c-.39045.548-.78974,1.09-1.18915,1.63183Z"/><path class="cls-2" d="M18.47815,141.98492c2.19659-.3172.68567-3.19043-.65863-3.88885a4.4446,4.4446,0,0,0-1.35486-.43506C16.15741,139.59369,16.118,142.32574,18.47815,141.98492Z"/><path class="cls-2" d="M131.43439,25.17981a26.45513,26.45513,0,0,1-5.8573.391,3.0836,3.0836,0,0,1,.33893,1.23193c.00238.02765.00244.058.00439.08619C127.81384,26.97876,130.90533,26.97418,131.43439,25.17981Z"/><path class="cls-2" d="M53.84174,149.29016a3.94223,3.94223,0,0,0-2.69062,1.94342,2.68035,2.68035,0,0,0-.3222,1.49579c.619,3.48126,3.429,1.10205,4.19177.33478a8.4131,8.4131,0,0,0,2.16895-4.16883A11.04842,11.04842,0,0,0,53.84174,149.29016Z"/><path class="cls-2" d="M124.51,32.37885c.61884-.18128.86243-.39509.90759-1.025a2.4247,2.4247,0,0,0-.01294-.93518,3.92849,3.92849,0,0,1-.81921,1.64532,2.06044,2.06044,0,0,1-1.24072.31739,4.84715,4.84715,0,0,1-.99952-.10938c-.03472-.0075-.08282-.02392-.12066-.03308-.01709.12134-.0426.22681-.06671.33539A8.6738,8.6738,0,0,0,124.51,32.37885Z"/><path class="cls-3" d="M188.29346,84.63281c.98779-1.09717,2.498-1.0791,4.09814-1.07275,1.61377.01465,3.28028.02588,4.63721-1.04883,1.27441-1.00928,2.04639-1.16016,2.32031-.98633.21777.13916.27393.60987.13965,1.17188a5.29081,5.29081,0,0,1-4.52148,3.76123.5.5,0,0,0,.04882.99756c.01612,0,.03272-.001.04981-.00245a6.23414,6.23414,0,0,0,5.39551-4.52392,1.98934,1.98934,0,0,0-.57422-2.24707c-.54639-.34863-1.59229-.44971-3.4795,1.04492-1.08105.85645-2.499.83984-4.0083.8335-1.75048-.01563-3.55957-.02832-4.84912,1.40234a.50027.50027,0,0,0,.74317.66992Z"/><path class="cls-3" d="M234.58954,109.62921q-3.02436-.81793-6.04865-1.63586l-.17334-.04688a6.5199,6.5199,0,0,1-1.42-.384,2.20465,2.20465,0,0,0-.39136-.1908c.06726-.00518.17108-.06878.14051-.39929-.22895-2.47436.40856-5.30383.75238-7.77777.0094-.06769.02081-.13794.02972-.20508a.47909.47909,0,0,0-.24762-.43176c-1.53125-.66785-3.1463-1.48206-4.7887-2.0697a14.74107,14.74107,0,0,0-1.9339-.5553,47.39233,47.39233,0,0,0,1.98743-9.34461c.00916-.11322.02387-.22637.03143-.33966a.51018.51018,0,0,0-.36712-.48211,33.71657,33.71657,0,0,0-5.09009-1.67487,9.77165,9.77165,0,0,0-1.68915-.19519,15.81373,15.81373,0,0,0-.0813-4.832c-.06823-.42639-.14013-1.13861-.30932-1.80646a2.42028,2.42028,0,0,0-.85443-1.51226c-1.09034-.652-4.23609.68066-5.32361,1.006a38.95587,38.95587,0,0,0-8.0343,3.46.50036.50036,0,0,0,.5047.86346c3.2658-1.84881,7.23718-3.767,11.03289-4.16449.90265-.09454,1.32117.08325,1.56195.4986a5.33335,5.33335,0,0,1,.40882,1.60535,14.25591,14.25591,0,0,1,.038,5.24432.50581.50581,0,0,0,.48218.63293,7.86333,7.86333,0,0,1,2.34174.2837c.2749.06964.54748.149.81823.23132.50568.15381,1.00281.32055,1.48084.47406a7.155,7.155,0,0,1,2.03113.69635c.40808.35431.04205.09088-.10535,1.13678a59.86466,59.86466,0,0,1-1.97815,8.46533.50294.50294,0,0,0,.34924.615,18.6903,18.6903,0,0,1,6.04914,2.22553c.13556.08368.67865.17651.768.32965.05463.09356-.36645,1.87921-.41211,2.28991-.23,2.07-.38794,4.14539-.50128,6.22486a.50527.50527,0,0,0,.36707.48218q3.3663.9104,6.73248,1.8208c-6.355,2.16211-12.8396,4.176-18.97754,6.86871a35.828,35.828,0,0,0-7.71551,4.28528c-.96143.75372-.69349.78259-1.62635.81756a9.58208,9.58208,0,0,1-2.07525-.44763c-1.048-.22607-2.1958-.37317-3.28876-.61407a10.95939,10.95939,0,0,1-1.47437-.41327c-1.01153-.37842-.31677.12195-.37457-.58026a24.56548,24.56548,0,0,1,.71118-5.83258c.01282-.07386.02765-.15046.03968-.22321a.517.517,0,0,0-.34919-.61505q-1.53432-.53356-3.081-1.03168c-.5022-.16162-1.1344-.28174-1.77-.4154a9.684,9.684,0,0,1-1.838-.526,1.94836,1.94836,0,0,1,.01526-.58667c.1073-.71283.09717-1.4607.14453-2.18061q.15261-2.32242.29291-4.64575c.02014-.33288.04364-.66553.063-.99847a.50584.50584,0,0,0-.5-.5c-1.11059-.00977-2.22454-.0091-3.33667.025q-.79137.02416-1.5805.07947a13.29254,13.29254,0,0,0-.49725-3.74994c-.13514-.577-1.18824-2.51282-1.03449-3.05267-.04175.14672,1.10181-.85395,1.27277-1.03046q1.03235-1.0654,2.09875-2.097c1.655-1.60894,3.35883-3.16626,5.07392-4.71063.47924-.43158-.2298-1.1369-.7071-.70709-2.96191,2.66705-5.87713,5.38257-8.58856,8.30664a.5197.5197,0,0,0-.07818.6059c.87792,1.80261,1.899,4.90362,1.3944,6.84179a.50415.50415,0,0,0,.48218.63294c.76715-.06763,1.53436-.09607,2.302-.11237.71723-.01526,1.43482-.02,2.15339-.03485.01379-.0003.32531-.02112.59259-.02539a1.34684,1.34684,0,0,0-.14106.54224c-.04431.42486-.02307.92083-.02942,1.02246q-.20965,3.34836-.438,6.69561a.51237.51237,0,0,0,.5.5,32.9863,32.9863,0,0,1,6.55322,1.969c-.35675,2.23822-.62463,4.4812-.78235,6.744a.50186.50186,0,0,0,.36707.48211c2.49908.539,4.99292,1.14478,7.50488,1.61872.09894.01867.17944.0285.26495.04083,1.00391.14477,1.16864-.14386,2.26911-.92963a43.01567,43.01567,0,0,1,8.045-4.424c6.4812-2.787,13.32117-4.85895,19.98523-7.16723.03332-.01154.04816-.04169.077-.05848A.488.488,0,0,0,234.58954,109.62921Z"/><path class="cls-3" d="M185.543,92.09412a.50043.50043,0,0,0,.26581-.9643,4.97089,4.97089,0,0,1-2.98377-1.6131c-.3695-.5205-1.23706-.02154-.86352.5047A5.91911,5.91911,0,0,0,185.543,92.09412Z"/><path class="cls-3" d="M116.82715,26.46484c.60889-.54394,6.20166-1.44922,7.6167-.68994a1.185,1.185,0,0,1,.44385.85449,9.12193,9.12193,0,0,1-.91993,4.64795,2.51013,2.51013,0,0,1-1.45947.00635,1.88928,1.88928,0,0,1-1.25879-.731c-.05859-.11328-.03857-.13671-.01709-.16162a2.17,2.17,0,0,1,1.55322-.3042.5.5,0,1,0,.31739-.94824,2.96293,2.96293,0,0,0-2.63086.60254,1.09732,1.09732,0,0,0-.11035,1.27149,2.12985,2.12985,0,0,0,.89343.85736,2.26613,2.26613,0,0,1-.59216,1.54254.5.5,0,0,0,.60009.7998,2.11745,2.11745,0,0,0,.5279-.6391c.00824.00013.01373.00415.02215.00391,1.31818-.03467,3.11774.144,4.15711-.864a2.21752,2.21752,0,0,0,.465-1.60657,1.8919,1.8919,0,0,0-.43707-1.598.4544.4544,0,0,0-.31744-.13984,11.43731,11.43731,0,0,0,.2276-1.49279,15.22036,15.22036,0,0,0,4.87579-.51429,2.103,2.103,0,0,0,1.6969-1.87573,12.90765,12.90765,0,0,1,3.00226,1.09119c.56714.30383,1.07281-.55914.5047-.86347a14.04256,14.04256,0,0,0-3.14679-1.16571,11.99681,11.99681,0,0,0,.66333-2.34137.51343.51343,0,0,0-.2298-.56463,6.11287,6.11287,0,0,1-2.08264-1.4961,13.1129,13.1129,0,0,0,4.65741-4.9132c.2738-.57856-.58807-1.08667-.86353-.5047-1.0285,2.17309-2.85833,3.55322-4.78381,4.89819a.51143.51143,0,0,0-.1012.78528,12.01265,12.01265,0,0,0,1.49787,1.47912c.911.83814.8526,1.1612.41052,2.17261a.49454.49454,0,0,0-.12067.00226,31.39963,31.39963,0,0,1-8.99243.4007.47166.47166,0,0,0-.22851.04547c-2.54493-.04639-6.069.60821-6.61853,1.32629a24.78079,24.78079,0,0,0-1.70221,4.0473,5.87292,5.87292,0,0,1,.99365.18988A24.41372,24.41372,0,0,1,116.82715,26.46484Zm14.60724-1.285c-.52906,1.79437-3.62055,1.799-5.514,1.70911-.002-.0282-.002-.05854-.00439-.08619a3.0836,3.0836,0,0,0-.33893-1.23193A26.45513,26.45513,0,0,0,131.43439,25.17981Zm-6.01679,6.174c-.04516.62994-.28875.84375-.90759,1.025a8.6738,8.6738,0,0,1-2.35217.19543c.02411-.10858.04962-.21405.06671-.33539.03784.00916.08594.02558.12066.03308a4.84715,4.84715,0,0,0,.99952.10938,2.06044,2.06044,0,0,0,1.24072-.31739,3.92849,3.92849,0,0,0,.81921-1.64532A2.4247,2.4247,0,0,1,125.4176,31.35382Z"/><path class="cls-3" d="M149.83234,183.06409c-3.50025-.78473-8.186-1.20117-9.77338-4.73468,1.95355-5.367,8.05377-39.94031,12.40277-65.41065,2.17767-12.75366,3.91632-23.22479,4.47339-26.59149a.9395.9395,0,0,0-.24805-.80218.94989.94989,0,0,0-.55389-.27442.91018.91018,0,0,0-.17206-.03412l-28.67474.71686c-.046.00116-.08863.01288-.13385.01672q-.32373.40806-.63849.81372l-.05609.07154c-.05493.071-.11158.14044-.16663.2113q-.5885.75678-1.18658,1.50488c.15716,8.5326.66626,36.79053.94458,59.42054.18518,15.0592.26812,27.62317.07666,30.20746l.04223.029c-2.25732,2.83691-5.329,4.73016-7.76825,7.42792-1.12793,1.24743-2.55267,3.35546-.94024,4.79065,1.92212,1.71087,5.924,1.00189,8.06775.25048,3.31964-1.16363,5.93261-3.62079,8.15594-6.261.412-.48932-.29187-1.2002-.70715-.70716a20.70783,20.70783,0,0,1-5.90753,5.17786c-1.6648.88532-10.39924,3.48767-8.8974-1.3399.44854-1.4419,2.43994-2.896,3.99267-4.06263a.51033.51033,0,0,0,.13281.00562,4.15545,4.15545,0,0,1,3.09876.77765c.52429.37512,1.02417-.49182.50476-.86347a5.01083,5.01083,0,0,0-2.48828-.90344q.57843-.50674,1.12744-1.02954a.49593.49593,0,0,0,.17749.03455,4.63923,4.63923,0,0,1,2.90576.90216c.47376.43414,1.1828-.27118.70716-.70716a5.24929,5.24929,0,0,0-2.87305-1.15057,21.70719,21.70719,0,0,0,1.58917-1.84027,7.35919,7.35919,0,0,0,6.56213.27093l1.60328.53443a7.88689,7.88689,0,0,0,4.12512-.38568,6.68453,6.68453,0,0,0,2.28576,2.40222,3.86392,3.86392,0,0,0-1.2312,2.45556c-.07562.63776.925.63233,1,0a2.83743,2.83743,0,0,1,1.00678-1.82037.47138.47138,0,0,0,.09918-.12927c.2793.14282.564.27862.85822.40088a3.61805,3.61805,0,0,0-.86872,2.15576.5003.5003,0,0,0,1,0,2.13557,2.13557,0,0,1,.30207-.97186,2.97635,2.97635,0,0,1,.27-.43512c.03559-.04535.10895-.09717.13245-.14844a.11232.11232,0,0,1,.05957-.06189.67291.67291,0,0,1-.12866-.01062.51062.51062,0,0,0,.40332-.10254,27.68963,27.68963,0,0,0,3.2254.80133c.92566.17993,3.39258.23731,4.03864.97162,2.09918,2.386-3.544,3.02643-4.24121,3.08307a14.56987,14.56987,0,0,1-8.80866-2.17548.50663.50663,0,0,0-.75232.4317q-.05282.42709-.10559.85413c-.35248-.2002-.7066-.39764-1.045-.62152-.53827-.35608-1.03967.50958-.5047.86352.54925.36335,1.14685.64533,1.69611,1.00867a.50621.50621,0,0,0,.75238-.4317l.10778-.87225a15.42692,15.42692,0,0,0,7.86921,1.984c1.97509-.05041,5.85784-.38745,7.02081-2.3009C155.22437,184.08112,151.24164,183.38007,149.83234,183.06409ZM139.11823,134.975l-4.76294,42.56225a.49953.49953,0,0,1-.4961.44434.5511.5511,0,0,1-.05664-.00293.50093.50093,0,0,1-.4414-.55274l4.56793-40.81909,3.74164-33.43579,4.74218-3.06836a.5.5,0,1,1,.543.83984l-4.34375,2.81055Z"/><path class="cls-3" d="M138.66809,11.53851c.71753-.07971,1.34-.12378,1.87964-.141a4.04029,4.04029,0,0,1,4.0852,3.24048,12.35219,12.35219,0,0,1,.23133,4.00458c-.05805.46667-.256,1.582-.85181,1.71417l1.33081.21558a9.73857,9.73857,0,0,1,.74988-1.21326c.76117-.80151,2.415-1.461,3.41516-.7066.83142.62713.81952,1.95868.59552,2.86932a4.02407,4.02407,0,0,1-.99652,1.73035,3.39214,3.39214,0,0,1-.97278.75836,6.46167,6.46167,0,0,1-1.298.23443,3.655,3.655,0,0,0,.45678,3.53772c.75092.15223,1.26789.44843,1.41083.92713,2.7204.70337,7.1275-4.53729,8.58515-9.02533,1.53363-4.72186-1.29145-10.00879-5.16584-10.493,0,0-.57861-5.50464-9.48413-2.98651-5.85193,1.65466-8.27337-3.7533-8.27337-3.7533s-.9325.07873-.92829.16144C133.493,3.69275,134.20026,12.035,138.66809,11.53851Z"/><path class="cls-3" d="M140.29852,18.99841c0-.98077-.44269-1.77575-.98877-1.77575s-.98877.795-.98877,1.77575S140.29852,19.97913,140.29852,18.99841Z"/><path class="cls-3" d="M144.23724,28.77045a.50036.50036,0,0,0-.86346-.5047c-1.43414,2.38287-4.70758,3.21911-7.42694,3.05926-.33154-.01947-.65906-.0473-.96967-.09558-.81732-.12707-1.98889-.20679-2.305-1.20666a3.51119,3.51119,0,0,1,.2453-1.44794,21.29123,21.29123,0,0,1,.66071-2.0246c.21722-.607-.74866-.86835-.9643-.26587a9.49306,9.49306,0,0,0-.93066,3.92926c.148,1.34888,1.07165,1.57764,2.33038,1.8722.25159.05883.51166.10614.77557.14709l-.00067.00494.06867.96241q.08971,1.256.17932,2.512l.03735.52313c.0011.01557.0091.02606.01129.04083a.51583.51583,0,0,0,.60675.42609.50716.50716,0,0,0,.129-.03418.40964.40964,0,0,0,.253-.43274l-.02-.27966q-.02142-.30066-.0429-.6012-.08148-1.14176-.163-2.28369l-.05212-.73016C138.96875,32.54724,142.59381,31.501,144.23724,28.77045Z"/><path class="cls-3" d="M58.40924,147.96027a24.68832,24.68832,0,0,0-1.17346-10.12256c-1.98419-6.4383-6.38818-12.15576-12.93561-14.35028-6.4762-2.17066-14.22479-.79566-20.08734,2.49133a18.40357,18.40357,0,0,0-6.955,6.46149,16.55256,16.55256,0,0,0-1.68353,4.0332c-5.45447-.38135-9.26971,6.0423-9.90308,10.91736-1.00372,7.7251,2.418,16.80945,8.5105,21.664.49835.39709,1.21045-.306.70709-.70709-7.19989-5.737-11.5534-19.03925-5.83606-27.18195a7.744,7.744,0,0,1,6.21839-3.5899c.0202-.00019.03967.00171.05987.00164a6.65043,6.65043,0,0,0,.313,3.91083,2.89705,2.89705,0,0,0,4.52411.91431c2.00556-1.95856-.559-4.72723-2.46649-5.45319a7.88718,7.88718,0,0,0-1.03967-.31268c.016-.07111.03247-.14532.04754-.2085,1.15424-4.83642,5.12445-8.2788,9.46137-10.33911,9.57153-4.54693,21.56555-3.31915,27.48974,6.21631a25.81242,25.81242,0,0,1,3.85663,13.825,15.52437,15.52437,0,0,1-.14429,1.74329,10.887,10.887,0,0,0-4.62854.73077,4.33181,4.33181,0,0,0-2.902,4.37854c.18621,2.85626,2.84155,3.09564,4.82061,1.68958a9.05613,9.05613,0,0,0,3.565-5.69922,13.37005,13.37005,0,0,1,8.15356,3.94458c4.116,4.44208,3.957,11.10071.75745,15.9834-.35376.53985.51178,1.04144.86346.50476,3.44647-5.25958,3.50427-12.44391-.91382-17.19525A14.64651,14.64651,0,0,0,58.40924,147.96027Zm-40.58972-9.8642c1.3443.69842,2.85522,3.57165.65863,3.88885-2.36011.34082-2.32074-2.39123-2.01349-4.32391A4.4446,4.4446,0,0,1,17.81952,138.09607Zm37.20117,14.96808c-.76276.76727-3.57281,3.14648-4.19177-.33478a2.68035,2.68035,0,0,1,.3222-1.49579,3.94223,3.94223,0,0,1,2.69062-1.94342,11.04842,11.04842,0,0,1,3.3479-.39484A8.4131,8.4131,0,0,1,55.02069,153.06415Z"/><path class="cls-3" d="M72.251,166.8609q-.50153,1.24943-1.00305,2.49878c-.23975.59717.72711.85663.96423.26587q.50153-1.24943,1.00305-2.49878C73.455,166.52966,72.48816,166.27014,72.251,166.8609Z"/><path class="cls-3" d="M75.52368,167.46118a6.63092,6.63092,0,0,0-1.23236,1.77661c-.27295.57886.58893,1.087.86347.5047a5.79882,5.79882,0,0,1,1.076-1.57422C76.677,167.70428,75.97083,166.99622,75.52368,167.46118Z"/><path class="cls-3" d="M78.964,166.88873a4.55057,4.55057,0,0,0-1.68445,1.84363c-.28461.57483.57764,1.08209.86347.5047a3.57765,3.57765,0,0,1,1.32568-1.48486C80.01263,167.41107,79.51129,166.54547,78.964,166.88873Z"/><path class="cls-3" d="M165.71393,167.64276c-7.14838.93408-14.45136-.73816-21.59155.3197-.63434.09394-.36475,1.05768.2658.96424,7.0459-1.04383,14.26734.63842,21.32575-.28394C166.343,168.56055,166.35126,167.55945,165.71393,167.64276Z"/><path class="cls-3" d="M122.00238,168.20349c-8.74744.258-17.49335.56391-26.23987.85138-4.83825.15906-9.86255.70013-14.70074.35657-.64221-.0456-.63935.95465,0,1,4.83783.3435,9.86291-.19751,14.70074-.35657,8.74652-.28747,17.49243-.59338,26.23987-.85138C122.64447,169.18451,122.64716,168.18445,122.00238,168.20349Z"/><path class="cls-3" d="M168.96234,167.39825a2.051,2.051,0,0,0-.55566,1.12311c-.08826.6294.87512.90143.96429.26581a1.16369,1.16369,0,0,1,.29846-.68182C170.105,167.63269,169.3996,166.92377,168.96234,167.39825Z"/><path class="cls-3" d="M171.48358,167.567c-.27618-.58094-1.13861-.074-.86346.5047l.15991.33654c.27618.58094,1.13861.074.86346-.5047Z"/><path class="cls-3" d="M190.69513,168.88983c4.95-.34546,10.18658-.82428,14.7854-2.81653.589-.25512.08032-1.11688-.5047-.86346-4.84991,2.101-10.48737,2.47131-15.69647,2.7691a133.3479,133.3479,0,0,1-15.03943.018c-.643-.036-.641.96417,0,1A131.36783,131.36783,0,0,0,190.69513,168.88983Z"/><path class="cls-3" d="M217.08417,182.8a19.71642,19.71642,0,0,0,3.80041.66357c.64185.04932.63867-.95093,0-1a18.33209,18.33209,0,0,1-3.5346-.62787A.50043.50043,0,0,0,217.08417,182.8Z"/><path class="cls-3" d="M218.19507,187.51733l-2.2793,10.26435c-.35113,1.58136-1.21747,3.7304.15155,5.05273,1.2663,1.22315,2.0539.74829,1.71021,3.54163a14.87088,14.87088,0,0,1-.85572,3.14868,34.65818,34.65818,0,0,0-1.71154,6.05475c-.10791.62945.85559.89984.96429.26587a32.00222,32.00222,0,0,1,1.63373-5.851c.59057-1.59094,1.47687-3.87872,1.23767-5.583a2.05278,2.05278,0,0,0-.67493-1.358c-.89972-.85541-.84845-.2035-1.44018-1.84736a4.46628,4.46628,0,0,1-.05078-3.15856q1.13964-5.13218,2.27923-10.26429C219.29852,187.15619,218.33472,186.88837,218.19507,187.51733Z"/><path class="cls-3" d="M216.9375,178.32031c-.47119.23242-.96436.51172-1.46338.793a17.107,17.107,0,0,1-2.37988,1.19531.49985.49985,0,1,0,.3418.93946,17.86524,17.86524,0,0,0,2.53027-1.26367c.48242-.27247.959-.543,1.41455-.76758a.50007.50007,0,0,0-.44336-.89649Z"/><path class="cls-3" d="M203.61914,192.19727a28.49554,28.49554,0,0,0-8.71582-1.64844,1.131,1.131,0,0,0-1.07227.6914,1.1064,1.1064,0,0,0,.2627,1.23829l1.13867,1.07714a.1058.1058,0,0,1,.02539.13184.09983.09983,0,0,1-.10937.06152,36.44379,36.44379,0,0,0-7.70752-.09277.49994.49994,0,0,0-.4502.54492.50746.50746,0,0,0,.54492.45117,35.40944,35.40944,0,0,1,7.49463.08887,1.11088,1.11088,0,0,0,.88965-1.91211l-1.13867-1.07715a.10607.10607,0,0,1-.02734-.12793.12881.12881,0,0,1,.11816-.07519,27.49831,27.49831,0,0,1,8.41016,1.58984.49994.49994,0,0,0,.33691-.9414Z"/><path class="cls-3" d="M220.7403,183.75854c-3.69489,3.33783-9.19953,1.27924-13.52649,3.05829-1.31867.54218-5.29248,3.49677-2.80848,4.83741a.50153.50153,0,0,0,.5047,0l.3675-.24189c.53528-.35241.03485-1.21875-.50476-.86352a2.57242,2.57242,0,0,1,1.01873-1.7301,4.70359,4.70359,0,0,1,1.45966-.91407,9.1563,9.1563,0,0,1,2.16626-.70215,34.65932,34.65932,0,0,1,5.10773-.38476c2.57245-.14557,4.95752-.57721,6.92224-2.352C221.926,184.03339,221.217,183.32794,220.7403,183.75854Z"/><path class="cls-3" d="M210.11182,168.55859a1.42388,1.42388,0,0,0-1.50977-.90527,18.51646,18.51646,0,0,0-4.35107,1.02246.4996.4996,0,1,0,.3457.9375,17.49915,17.49915,0,0,1,4.11621-.96582.43148.43148,0,0,1,.47217.28711.473.473,0,0,1-.147.56934,1.47757,1.47757,0,0,0,.64746,2.62011l.67822.1211a.47777.47777,0,0,1,.207.84863L209.231,174.124a1.47132,1.47132,0,0,0-.5542,1.42676,1.48643,1.48643,0,0,0,1.02344,1.16113,18.95561,18.95561,0,0,0,5.582.79981q.36767,0,.73584-.0127a.50053.50053,0,0,0,.48193-.51757.5153.5153,0,0,0-.51709-.48243,18.18833,18.18833,0,0,1-5.98242-.74023.48566.48566,0,0,1-.33887-.38281.46389.46389,0,0,1,.17871-.459l1.34033-1.03027a1.47788,1.47788,0,0,0-.64111-2.626l-.67822-.12109a.4779.4779,0,0,1-.20947-.84668A1.47243,1.47243,0,0,0,210.11182,168.55859Z"/><path class="cls-3" d="M194.2229,206.506c-3.79932.309-8.54748-.04223-11.944-1.92157-.78308-.43329-1.95831-1.18786-1.59186-2.28552.25177-.75415,1.70056-1.34821,2.36389-1.68677a37.69007,37.69007,0,0,0,4.54242-2.16858c.52472-.36487.02539-1.23211-.5047-.86346-1.8493,1.28619-9.61493,2.97949-6.9591,6.57184,1.22821,1.66125,3.90527,2.293,5.7882,2.70562a28.93069,28.93069,0,0,0,7.61152.67395c-.87207,2.00666-3.68946,2.75672-5.59766,3.06116a.50451.50451,0,0,0-.11945.91382,9.45839,9.45839,0,0,0,3.6117.79517,6.05723,6.05723,0,0,1-1.22376.53253c-.59881.22058-.34,1.18744.26587.96429a8.89848,8.89848,0,0,0,2.90326-1.72021c.4198-.3667-.04791-.89917-.48645-.8357a8.13074,8.13074,0,0,1-2.89972-.08484c2.1037-.60992,4.29572-1.80456,4.722-4.01879A.50583.50583,0,0,0,194.2229,206.506Z"/><path class="cls-4" d="M186.3399,82.75934c-2.15454-1.88568-12.83612-15.33753-16.06719-19.42609-.046-.24029-.09461-.46905-.14478-.68255l.00738.00116-.00823-.00519c-.06678-.28382-.13581-.54132-.20429-.75348-1.29065-4.00018-5.72174-15.31848-7.66516-18.88135-.82159-1.50629-3.73944-3.15814-6.21314-4.347.1634-.19055.32209-.38513.49061-.57116L156.3,37.73712a71.52759,71.52759,0,0,0-8.71527-4.15307c-.08087.77972-.13593,1.58721-.17163,2.361a12.75276,12.75276,0,0,1,2.55841,1.70251,6.89285,6.89285,0,0,1,.029,1.29523c-.01605.86468-.04474,2.01459-.00043,3.01691.18457.24054.36865.48809.55219.75244,2.28088,3.285,4.4439,8.45532,5.608,16.54577.3244,2.2544.5755,4.72284.72485,7.45429a82.51291,82.51291,0,0,1,.3523,13.90387c.05261,2.03546.02185,3.46075-.31275,3.996a2.0746,2.0746,0,0,1-.79144.63861.94989.94989,0,0,1,.55389.27442.9395.9395,0,0,1,.24805.80218c-.55707,3.3667-2.29572,13.83783-4.47339,26.59149.19452-.36194.39166-.72272.58527-1.085.095-.17779.19183-.35467.28479-.53357,7.18274-13.82318,8.23724-35.8313,7.14575-46.48077.20276.21148.38721.3996.54858.55829a3.28206,3.28206,0,0,0,.00714.61444c.54407,4.91534,18.38562,22.51965,19.36213,22.97448S188.88544,84.98712,186.3399,82.75934ZM158.27521,45.27448c-.21106.13513-.42725.27056-.624.42419-3.09912,2.41986-.78991,5.47082.15424,8.32458a21.16468,21.16468,0,0,1,1.00665,6.46344.5003.5003,0,0,1-1,0,21.403,21.403,0,0,0-1.63928-7.8601c-.08917-.22492-.17621-.4494-.27185-.6756a9.80723,9.80723,0,0,1-.91357-2.90595,4.18865,4.18865,0,0,1,.01763-.94439,4.84343,4.84343,0,0,1,1.40693-2.71784,6.734,6.734,0,0,1,.90393-.665,1.84848,1.84848,0,0,0,.95184-1.16406c.10431-.8512-1.95282-2.57916-2.57526-3.21307-.45141-.45978.2555-1.16706.7071-.7071.874.89008,2.76934,2.61176,2.9674,3.944C159.49866,44.46387,158.9104,44.86774,158.27521,45.27448Z"/><path class="cls-4" d="M187.74493,103.55963c.02021.18707.03675.3678.04718.53742l-.01873.072c.662-.07068,1.6333-.108,2.57647-.12744a1.34684,1.34684,0,0,1,.14106-.54224c-.26728.00427-.5788.02509-.59259.02539C189.17975,103.53961,188.46216,103.54437,187.74493,103.55963Z"/><path class="cls-4" d="M234.58954,110.59351c-6.66406,2.30828-13.504,4.38018-19.98523,7.16723a43.01567,43.01567,0,0,0-8.045,4.424c-1.10047.78577-1.2652,1.0744-2.26911.92963l3.00208.64752a46.71891,46.71891,0,0,1,13.376-7.00659c4.75733-1.712,16.11872-5.64673,16.11872-5.64673l-2.12049-.57349C234.6377,110.55182,234.62286,110.582,234.58954,110.59351Z"/><path class="cls-4" d="M206.05457,121.32123a35.828,35.828,0,0,1,7.71551-4.28528c6.13794-2.69269,12.6225-4.7066,18.97754-6.86871q-3.3663-.91041-6.73248-1.8208a.50527.50527,0,0,1-.36707-.48218c.11334-2.07947.2713-4.15485.50128-6.22486.04566-.4107.46674-2.19635.41211-2.28991-.08935-.15314-.63244-.246-.768-.32965a18.6903,18.6903,0,0,0-6.04914-2.22553.50294.50294,0,0,1-.34924-.615,59.86466,59.86466,0,0,0,1.97815-8.46533c.1474-1.0459.51343-.78247.10535-1.13678a7.155,7.155,0,0,0-2.03113-.69635c-.478-.15351-.97516-.32025-1.48084-.47406a3.52537,3.52537,0,0,0-.82953-.01795l.0188-.09033c-.00195-.03967-.00531-.08282-.0075-.123a7.86333,7.86333,0,0,0-2.34174-.2837.50581.50581,0,0,1-.48218-.63293,14.25591,14.25591,0,0,0-.038-5.24432,5.33335,5.33335,0,0,0-.40882-1.60535A27.96755,27.96755,0,0,0,203.3609,81.6405l-.7597.60462c-.7699,4.28161-4.19,7.5863-8.59577,7.08032-2.94769,2.7384-5.83624,5.61255-7.67688,7.61658,0,0,.87506,3.10687,1.27844,5.61108,1.11213-.03406,2.22608-.03473,3.33667-.025a.50584.50584,0,0,1,.5.5c-.01934.33294-.04284.66559-.063.99847,1.05944-.0097,1.89343-.00134,1.89343-.00134-.11713,2.0581-.39252,6.21155-.50812,7.94037.63556.13366,1.26776.25378,1.77.4154q1.54632.49769,3.081,1.03168a.517.517,0,0,1,.34919.61505c-.012.07275-.02686.14935-.03968.22321,1.07923.35888,1.888.641,1.888.641-.35321,2.04754-.59161,4.11334-.75024,6.18512,1.093.2409,2.24072.388,3.28876.61407a9.58208,9.58208,0,0,0,2.07525.44763C205.36108,122.10382,205.09314,122.075,206.05457,121.32123ZM217.098,105.68939q.98228-.4694,1.9646-.9389c-.449-.614-.88562-1.23761-1.326-1.85742-.37378-.52613.49384-1.025.86347-.5047.45556.64117.90448,1.29327,1.37658,1.92529q1.11364-.5322,2.2273-1.06445c.57837-.27637,1.08508.58612.5047.86346q-1.04709.50043-2.09412,1.00086a5.02858,5.02858,0,0,1,1.17145,1.49273c.23675.59979-.73071.85755-.96423.26587-.16175-.40979-.70148-.78033-.98346-1.11084-.05536-.06482-.10468-.13476-.15839-.20111q-1.03857.49639-2.07709.99274C217.02435,106.82928,216.51758,105.9668,217.098,105.68939Zm-1.57831,4.47608a6.49918,6.49918,0,0,0,2.39295-2.56031c.30011-.57037,1.1629-.06439.86346.5047a7.49261,7.49261,0,0,1-2.75165,2.91907C215.47284,111.36505,214.971,110.49982,215.51965,110.16547Zm-24.33294-12.678a3.837,3.837,0,0,1-.86066-3.188c.10681-.63422,1.07031-.36365.96423.26587a2.74522,2.74522,0,0,0,.60352,2.215C192.304,97.27112,191.59985,97.98175,191.18671,97.48743Zm4.708,1.72143a12.09091,12.09091,0,0,1-2.66839-.4057.50044.50044,0,0,1,.26587-.96429,10.84586,10.84586,0,0,0,2.40252.37C196.53705,98.23468,196.53827,99.23474,195.89471,99.20886Zm6.336.01941a11.8371,11.8371,0,0,0-3.44629-.22748c-.64282.0495-.63751-.95092,0-1a12.76937,12.76937,0,0,1,3.7121.26325C203.12616,98.40063,202.85809,99.36444,202.23071,99.22827Zm9.20587,12.03949a4.34658,4.34658,0,0,0,2.14234-.44324c.57525-.28527,1.0813.57752.5047.86347a5.402,5.402,0,0,1-2.647.57977C210.79419,112.24243,210.793,111.24237,211.43658,111.26776Zm-2.47283.50232a2.47647,2.47647,0,0,1-1.67811-2.759c.09095-.63556,1.05433-.36365.96424.26581a1.4489,1.4489,0,0,0,.97967,1.52893C209.83881,111.007,209.57623,111.97235,208.96375,111.77008Zm.38873-7.30218a4.45573,4.45573,0,0,1-.58978,3.13763c-.33753.54736-1.20221.04456-.86347-.50476a3.39044,3.39044,0,0,0,.489-2.367C208.2829,104.10321,209.2467,103.83459,209.35248,104.4679Zm-4.66907-5.26a9.34386,9.34386,0,0,1,3.87018,3.39587c.35242.54156-.51373,1.04211-.86347.50476a8.39144,8.39144,0,0,0-3.51147-3.03717C203.59613,99.79724,204.10437,98.93542,204.68341,99.20789Z"/><path class="cls-4" d="M226.55615,107.37164a2.20465,2.20465,0,0,1,.39136.1908,6.5199,6.5199,0,0,0,1.42.384l.17334.04688c.15729-2.68219.40369-5.35645.76831-8.00666,0,0-.79547-.34784-1.86016-.79211-.34382,2.47394-.98133,5.30341-.75238,7.77777C226.72723,107.30286,226.62341,107.36646,226.55615,107.37164Z"/><path class="cls-4" d="M222.44244,96.488a54.05683,54.05683,0,0,0,1.91541-9.24243s-.78919-.29871-1.86188-.65748a47.39233,47.39233,0,0,1-1.98743,9.34461A14.74107,14.74107,0,0,1,222.44244,96.488Z"/><path class="cls-4" d="M215.381,83.8963a9.77165,9.77165,0,0,1,1.68915.19519c-.27216-3.07245-.96539-6.94269-.96539-6.94269-.37366.0213-.74359.068-1.11438.10907.16919.66785.24109,1.38007.30932,1.80646A15.81373,15.81373,0,0,1,215.381,83.8963Z"/><path class="cls-4" d="M146.4129,100.10266l-4.74218,3.06836-3.74164,33.43579c.39941-.54187.7987-1.08386,1.18915-1.63183l3.49389-31.22193,4.34375-2.81055a.5.5,0,1,0-.543-.83984Z"/><path class="cls-4" d="M78.8385,138.31256c.03577.00647.07037.01489.1062.02118a.33381.33381,0,0,1-.05737-.14416C78.87177,138.231,78.854,138.27118,78.8385,138.31256Z"/><path class="cls-4" d="M134.3028,43.3078a9.768,9.768,0,0,1-.23584-1.45843,17.74841,17.74841,0,0,1-.683-4.66431c-.0155-.34473.82526-.63019,1.70117-.90888-.00219-.01477-.01019-.02526-.01129-.04083l-.03735-.52313q-.08962-1.25592-.17932-2.512a20.60268,20.60268,0,0,0-9.95087,4.12487s.05957.09443.146.22113a9.08242,9.08242,0,0,1,4.207,2.2638.5.5,0,0,1-.0083.71631,36.23549,36.23549,0,0,0-2.79511,3.20245c-.62915.79212-1.16455,1.50372-1.41192,1.87274.15478.1211.38574.28662.61181.44873.57623.41333,1.363.98456,2.24249,1.72327a23.61539,23.61539,0,0,1,4.91919,5.649,24.36351,24.36351,0,0,1,3.52338,11.25177.49948.49948,0,0,1-.46191.53515l-.03711.00147a.49972.49972,0,0,1-.49805-.46338,23.87915,23.87915,0,0,0-2.5116-9.24872,22.12589,22.12589,0,0,0-4.59668-6.08661,29.96815,29.96815,0,0,0-3.16223-2.54895c-.876-.62842-1.17138-.84033-1.13428-1.24512a14.07,14.07,0,0,1,2.04719-2.90484c.77343-.94928,1.60815-1.91333,2.20086-2.53412a6.90693,6.90693,0,0,0-.93286-.65894,5.06369,5.06369,0,0,0-3.95111,1.4123c-.01575.01513-.02918.03357-.04456.04919L112.843,45.70685c-.83411,1.67334-1.43292,3.45245-2.40363,5.05737a.50038.50038,0,0,1-.86346-.50476,33.60729,33.60729,0,0,0,1.85736-3.91309l-.14832.06727c.14051-.21869.2782-.43726.41663-.65589.19574-.42175.39661-.84112.62433-1.24829a.44952.44952,0,0,1,.29828-.23157c3.50512-5.71753,6.08892-10.95648,5.9732-11.22479a4.9176,4.9176,0,0,0-3.25665-2.978,5.87292,5.87292,0,0,0-.99365-.18988,9.85575,9.85575,0,0,0-1.16089-.03875S91.00769,54.10382,97.22052,58.71338a2.41007,2.41007,0,0,0,1.41266.4718l-.00977.02924s14.59186.89026,24.78229-2.64728l.00067.00647.0221-.01422q1.179-.75577,2.35815-1.51142a.44967.44967,0,0,1,.66321.18244.49461.49461,0,0,1-.15851.681q-1.38666.8888-2.77338,1.77759a39.614,39.614,0,0,1-3.70269,20.52056c-6.87073,13.46479-24.90369,21.69086-36.80652,29.57355a94.01621,94.01621,0,0,0-19.99988,18.348c-.12048.14393-1.08618,1.0813-1.00085,1.30066-.48835-.63092,5.78649,8.36554,15.83294,10.67609a56.96164,56.96164,0,0,1,3.94062-8.42426,73.06978,73.06978,0,0,1,13.69061-16.97924,105.55183,105.55183,0,0,1,11.77441-9.49237c.52948-.36945,1.02875.49786.5047.86346a94.47234,94.47234,0,0,0-17.9328,15.96936A65.79861,65.79861,0,0,0,82.387,130.66864c-.43561.782-.86242,1.56909-1.26208,2.37189q.60973-1.04966,1.352-2.24512a12.08781,12.08781,0,0,0,.87915,1.06012,15.7724,15.7724,0,0,0,11.16809,5.32294,34.45391,34.45391,0,0,1,4.68109.36395c6.72748,1.3667,10.56372,9.00873,17.11945,11.04578a15.35441,15.35441,0,0,0,9.72461-.61609c-.27832-22.63-.78742-50.88794-.94458-59.42054a55.38944,55.38944,0,0,1-11.68427,11.37452c-.53271.365-1.03235-.502-.5047-.86347,4.83978-3.3161,8.72431-7.67438,12.31812-12.269.05883-.0752.11541-.1521.17413-.22742l.02911-.038c.02747-.03528.05408-.07123.08155-.10651,1.83227-2.35486,3.61291-4.75067,5.40741-7.13415a43.13451,43.13451,0,0,0,3.81036-5.63947,41.47645,41.47645,0,0,0,1.75732-6.26495,38.16252,38.16252,0,0,0,.92939-11.7843C136.97534,51.40149,135.28192,47.39313,134.3028,43.3078Z"/><polygon class="cls-4" points="146.249 43.687 147.5 40.427 147.287 40.077 147.213 39.957 146.575 38.911 146.421 38.659 142.152 38.642 141.452 40.818 141.566 41.102 142.596 43.661 142.782 43.663 142.308 69.867 148.103 77.595 152.288 70.742 146.098 43.686 146.249 43.687"/></svg>